<svg width="351" height="76" xmlns="http://www.w3.org/2000/svg" xmlns:xlink="http://www.w3.org/1999/xlink"><defs><path id="a" d="M.06.249h350.404v58.5H.06z"/></defs><g fill="none" fill-rule="evenodd"><path d="M25.896 50.802V25.913c0-14.708 9.977-24.992 24.376-24.992 16.044 0 24.375 10.49 24.375 27.255v.205H60.453v-1.027c0-10.698-5.245-12.858-10.181-12.858-4.937 0-10.079 2.675-10.079 11.005v25.714c0 8.534 5.142 11.105 10.079 11.105 6.582 0 10.181-3.187 10.181-13.781v-.925h14.194v.411c0 18.205-8.022 27.874-24.375 27.874-14.399 0-24.376-10.287-24.376-25.097" fill="#004272"/><g fill="#004272"><path d="M86.053 2.257h39.082v13.68h-24.889v16.456h18.205v12.341h-18.205v29.827H86.053V2.257M131.34 50.904h14.194c0 8.435 4.321 11.931 10.595 11.931 5.963 0 10.386-2.775 10.386-8.741 0-6.069-6.583-8.023-14.088-10.389-9.465-3.188-20.159-7.096-20.159-21.494 0-13.268 9.461-21.29 23.861-21.29 13.985 0 23.655 9.358 23.655 24.272h-13.989c0-7.714-3.807-11.314-9.874-11.314-6.066 0-9.462 2.88-9.462 8.332 0 6.17 6.171 8.124 13.37 10.387 9.565 2.983 20.879 6.48 20.879 21.393 0 13.781-9.874 22.009-24.579 22.009-14.709 0-24.789-9.564-24.789-25.096"/></g><path d="M208.106 42.592c0-1.404-1.046-2.271-3.406-2.271h-5.318v4.602h5.468c2.031 0 3.256-.718 3.256-2.271v-.06zm-1.165-8.366c0-1.374-1.076-2.151-3.018-2.151h-4.541v4.422h4.242c2.032 0 3.317-.657 3.317-2.211v-.06zm-2.091 14.73h-9.949V28.043h9.709c4.272 0 6.902 2.12 6.902 5.407v.06c0 2.359-1.255 3.675-2.749 4.511 2.42.926 3.914 2.33 3.914 5.138v.06c0 3.825-3.107 5.737-7.827 5.737zM230.984 35.183c0-1.972-1.374-2.988-3.615-2.988h-4.571V38.2h4.661c2.241 0 3.525-1.194 3.525-2.958v-.059zm-.089 13.773l-4.481-6.692h-3.616v6.692h-4.6V28.043h9.56c4.93 0 7.887 2.599 7.887 6.901v.06c0 3.376-1.822 5.497-4.481 6.482l5.108 7.47h-5.377zM250.561 33.42l-2.779 6.782h5.557l-2.778-6.782zm6.334 15.536l-1.912-4.691h-8.844l-1.912 4.691h-4.69l8.962-21.063h4.243l8.963 21.063h-4.81zM280.828 48.956l-10.129-13.295v13.295h-4.54V28.043h4.241l9.8 12.876V28.043h4.541v20.913h-3.913M306.231 38.499c0-3.705-2.539-6.304-6.303-6.304h-3.555v12.607h3.555c3.764 0 6.303-2.538 6.303-6.243v-.06zm-6.303 10.457h-8.156V28.043h8.156c6.572 0 11.114 4.511 11.114 10.397v.059c0 5.886-4.542 10.457-11.114 10.457zM323.992 49.254c-3.167 0-6.364-1.105-8.873-3.345l2.718-3.257c1.882 1.553 3.854 2.54 6.244 2.54 1.883 0 3.018-.748 3.018-1.973v-.06c0-1.164-.717-1.762-4.213-2.658-4.212-1.076-6.931-2.241-6.931-6.394v-.059c0-3.795 3.047-6.305 7.319-6.305 3.048 0 5.647.956 7.769 2.659l-2.391 3.466c-1.852-1.285-3.674-2.062-5.437-2.062-1.763 0-2.689.807-2.689 1.823v.06c0 1.374.896 1.822 4.512 2.749 4.242 1.105 6.632 2.628 6.632 6.273v.06c0 4.153-3.167 6.483-7.678 6.483" fill="#004272"/><g transform="translate(0 9)"><mask id="b" fill="#fff"><use xlink:href="#a"/></mask><path fill="#5993B9" mask="url(#b)" d="M187.804.249v4.6h158.059v49.3H187.804v4.6h162.66V.249h-162.66M18.794 58.749v-4.6H4.601v-49.3h14.193v-4.6H0v58.5h18.794"/></g></g></svg>